<?xml version="1.0" encoding="utf-8"?>
<!-- Generator: Adobe Illustrator 28.0.0, SVG Export Plug-In . SVG Version: 6.00 Build 0)  -->
<svg version="1.1" id="Layer_1" xmlns="http://www.w3.org/2000/svg" xmlns:xlink="http://www.w3.org/1999/xlink" x="0px" y="0px"
	 viewBox="0 0 72 72" style="enable-background:new 0 0 72 72;" xml:space="preserve">
<style type="text/css">
	.st0{fill-rule:evenodd;clip-rule:evenodd;fill:#7F7F7F;}
	.st1{fill-rule:evenodd;clip-rule:evenodd;fill:#FFFFFF;}
</style>
<g>
	<path class="st0" d="M11.5,70h49.5c4.7,0,8.5-3.8,8.5-8.5V11.9c0-4.7-3.8-8.5-8.5-8.5H11.5C6.8,3.4,3,7.2,3,11.9v49.5
		C3,66.2,6.8,70,11.5,70z"/>
	<path class="st1" d="M59.2,60.7h-7.6c-0.6,0-1.1-0.5-1.1-1.1V43.9c0-4.6-1.8-7.2-5.4-7.2c-4,0-6.1,2.7-6.1,7.2v15.7
		c0,0.6-0.5,1.1-1.1,1.1h-7.2c-0.6,0-1.1-0.5-1.1-1.1V29.8c0-0.6,0.5-1.1,1.1-1.1h7.2c0.6,0,1.1,0.5,1.1,1.1v0c0,1,1.2,1.5,1.9,0.9
		c1.5-1.4,4.1-3,7.8-3c6.8,0,11.7,4.2,11.7,12.7v19.2C60.4,60.2,59.8,60.7,59.2,60.7z M18.1,24.5c-3.2,0-5.9-2.7-5.9-5.9
		s2.6-5.9,5.9-5.9s5.9,2.7,5.9,5.9S21.4,24.5,18.1,24.5z M14.4,60.7H22c0.6,0,1.1-0.5,1.1-1.1V29.8c0-0.6-0.5-1.1-1.1-1.1h-7.6
		c-0.6,0-1.1,0.5-1.1,1.1v29.8C13.2,60.2,13.7,60.7,14.4,60.7z"/>
</g>
</svg>
