<?xml version="1.0" encoding="UTF-8"?>
<svg xmlns="http://www.w3.org/2000/svg" xmlns:xlink="http://www.w3.org/1999/xlink" viewBox="0 0 3700.67 3700.67">
  <defs>
    <style>
      .cls-1 {
        fill: #fff;
      }

      .cls-2 {
        fill: url(#radial-gradient);
      }

      .cls-3 {
        fill: #fff200;
      }

      .cls-4 {
        fill: #ed1c24;
      }

      .cls-5 {
        fill: #231f20;
      }

      .cls-6 {
        fill: none;
        stroke: #231f20;
        stroke-miterlimit: 10;
        stroke-width: 183px;
      }
    </style>
    <radialGradient id="radial-gradient" cx="1850.33" cy="1850.33" fx="1850.33" fy="1850.33" r="1847.33" gradientUnits="userSpaceOnUse">
      <stop offset="0" stop-color="#fff"/>
      <stop offset="1" stop-color="#00a2e5"/>
    </radialGradient>
  </defs>
  <g id="Gradient">
    <circle class="cls-2" cx="1850.33" cy="1850.33" r="1847.33"/>
  </g>
  <g id="Horns">
    <g id="Left">
      <path class="cls-4" d="m1219.78,3465.18c-8.75-2.64-217.69-67.32-512.87-307.35l-21.53-17.51-1.45-27.72c-.15-2.84-3.47-70.88,11.5-180.93,8.67-63.76,21.76-129.12,38.91-194.26,21.38-81.25,49.18-162.45,82.61-241.36,43.01-101.5,86.29-181.57,128.64-237.99,46.62-62.11,90.13-92.3,133.02-92.3,25.77,0,49.77,11.48,65.85,31.49,22.91,28.52,28.42,70.66,16.38,125.25-20.16,91.36-44.72,316.88-24.8,533.15,14.62,158.71,55.91,290.64,87.96,373.38,34.95,90.21,66.89,143.3,67.21,143.83l86.01,139.96-157.45-47.64Z"/>
      <path class="cls-5" d="m1078.61,2228.26c23.29,0,32.32,30.36,21.19,80.77-19.57,88.69-47.47,319.3-26,552.35,29.86,324.12,164,543.94,164,543.94,0,0-202.47-61-491.47-296,0,0-13.34-255,128.15-588.89,89.02-210.06,165.83-292.17,204.12-292.18m.02-125h-.02c-38.68.01-76.61,14.42-112.76,42.82-23.57,18.51-46.55,42.87-70.25,74.46-45.39,60.47-91.22,144.96-136.2,251.12-34.6,81.65-63.37,165.71-85.51,249.84-17.79,67.59-31.38,135.47-40.4,201.74-15.49,113.84-12.39,184.89-11.99,192.62l2.9,55.43,43.07,35.02c69.34,56.38,139.8,107.93,209.44,153.2,56.28,36.59,112.24,69.26,166.35,97.09,94.19,48.46,152.18,66.51,158.49,68.41l316.15,95.25-173.28-279.87c-1.98-3.34-31.43-53.54-63.54-137.05-30.14-78.4-68.97-203.36-82.8-353.42-19.28-209.2,4.24-426.26,23.59-513.94,6.31-28.58,8.74-55.36,7.24-79.6-2.39-38.52-14.48-71.58-35.92-98.27-28-34.85-69.75-54.84-114.55-54.85h0Z"/>
    </g>
    <g id="Right">
      <path class="cls-4" d="m2403.82,3372.82c1.05-1.75,32.64-54.64,67.18-143.79,32.06-82.74,73.34-214.68,87.96-373.38,19.93-216.27-4.63-441.79-24.79-533.15-12.05-54.59-6.54-96.73,16.37-125.25,16.08-20.01,40.08-31.49,65.85-31.49,42.9,0,86.41,30.19,133.02,92.3,42.35,56.42,85.63,136.5,128.64,237.99,33.44,78.9,61.23,160.11,82.61,241.35,17.14,65.14,30.23,130.5,38.91,194.26,14.97,110.04,11.65,178.08,11.5,180.93l-1.45,27.72-21.53,17.51c-295.18,240.03-504.12,304.72-512.87,307.35l-157.29,47.39,85.88-139.74Z"/>
      <path class="cls-5" d="m2616.39,2228.26c38.29,0,115.1,82.12,204.12,292.18,141.49,333.89,128.16,588.89,128.16,588.89-288.99,235-491.47,296-491.47,296,0,0,134.14-219.83,164-543.94,21.47-233.06-6.43-463.66-26-552.35-11.13-50.42-2.09-80.77,21.19-80.77m0-125c-44.81,0-86.57,19.99-114.57,54.85-21.44,26.69-33.53,59.75-35.92,98.27-1.51,24.23.93,51.01,7.24,79.59,19.35,87.68,42.87,304.74,23.59,513.94-14.09,152.92-54.09,279.92-85.17,359.53-32.36,82.9-60.78,130.32-61.06,130.77l-170.32,279.12,313.08-94.32c6.3-1.9,64.29-19.95,158.49-68.41,54.1-27.83,110.07-60.5,166.35-97.09,69.63-45.28,140.1-96.82,209.44-153.2l43.07-35.02,2.9-55.43c.4-7.73,3.5-78.77-11.99-192.62-9.02-66.27-22.61-134.14-40.4-201.74-22.14-84.13-50.91-168.19-85.51-249.84-44.99-106.16-90.81-190.65-136.2-251.12-23.71-31.59-46.69-55.95-70.26-74.46-36.17-28.41-74.1-42.82-112.75-42.82h0Z"/>
    </g>
  </g>
  <g id="Halo">
    <g id="Stem">
      <rect class="cls-3" x="1721.91" y="1833.5" width="245" height="1765"/>
      <path class="cls-5" d="m1904.41,1896v1640h-120v-1640h120m125-125h-370v1890h370v-1890h0Z"/>
    </g>
    <g id="StemOutline">
      <path class="cls-5" d="m1849.97,1373.44c221.14,0,420.84,21,577.48,60.74,20.74,5.26,40.72,10.87,59.73,16.76-20.41,6.23-41.93,12.14-64.34,17.67-157.94,38.93-359.93,59.5-584.12,59.5s-422.09-20.29-577.63-58.69c-20.16-4.98-39.58-10.28-58.1-15.84,20.12-6.31,41.3-12.32,63.33-17.94,159.39-40.69,361.21-62.2,583.65-62.2m0-500c-705.71,0-1288.41,189.33-1288.41,578.68s571.44,575.99,1277.16,575.99,1288.59-178.67,1288.59-577.33-571.62-577.33-1277.33-577.33h0Z"/>
    </g>
    <g id="Halo-2" data-name="Halo">
      <path class="cls-3" d="m1845,1247c131.41,0,256.71,7.32,372.42,21.77,112.59,14.06,213.36,34.48,299.49,60.71,98.17,29.89,155.87,61.03,186.98,81.88,31.01,20.78,42.87,35.9,46.67,41.72-3.42,5.94-15.09,20.51-41.78,39.12-29.84,20.8-85.89,51.87-183.47,81.75-85.95,26.32-187.51,46.78-301.87,60.81-116.72,14.32-244.05,21.58-378.44,21.58s-257.98-7.89-374.82-23.46c-112.3-14.96-213.04-36.58-299.42-64.25-97.59-31.26-155.02-63.49-186.01-85.03-23.78-16.53-36.26-29.54-42.48-37.4,8.21-8.84,23.66-22.48,49.46-38.45,47.61-29.47,114.55-57.3,193.59-80.5,86.7-25.45,186.69-45.29,297.19-58.98,113.91-14.11,235.87-21.27,362.5-21.27m0-250c-639.18,0-1168.1,170.67-1157.33,454.67,10.67,281.33,518.16,454.67,1157.33,454.67s1156.32-154.67,1156.32-454.67-517.14-454.67-1156.32-454.67h0Z"/>
    </g>
    <rect class="cls-3" x="1784.41" y="1868.33" width="120" height="1684"/>
  </g>
  <g id="Highlights">
    <path id="HaloHighlight_R" class="cls-1" d="m2733.39,1614.02c6.75,21.55-85.28,78.98-277.31,114.16-158.99,29.13-312.93,21.99-317.76-.07-4.83-22.06,81.33-25.33,284-65.33,158.58-31.3,302.67-75.56,311.06-48.75Z"/>
    <path id="HaloHighlight_L" class="cls-1" d="m1124.7,1199.5c-6.77-21.54,50.3-63.83,226.26-101.37,158.08-33.73,255.86-31.18,260.71-9.12,4.85,22.06-125.33,50-250.67,83.33-156.21,41.54-227.88,53.96-236.3,27.16Z"/>
    <path id="HornHighlight_L" class="cls-1" d="m1155,3371.22s-50.65-21.86-123.67-62.89c0,0-55.67-158.23-55.67-472.67s108.43-617.26,121.33-594.22c12.44,22.22-112.67,285.89-69.67,700.89,19.66,189.75,127.67,428.89,127.67,428.89Z"/>
    <path id="HornHighlight_R" class="cls-1" d="m2844.33,2701.67c63.61,225.04,29.1,476.67,29.1,476.67l-46.44,30.67s1.97-208.65-18-363.33c-55.33-428.67-176.43-565.02-168.67-573.33,14-15,129,164,204,429.33Z"/>
  </g>
  <g id="OuterRing">
    <circle class="cls-6" cx="1850.33" cy="1850.33" r="1758.83"/>
  </g>
</svg>